<?xml version="1.0" encoding="UTF-8" standalone="no"?><svg xmlns="http://www.w3.org/2000/svg" xmlns:xlink="http://www.w3.org/1999/xlink" contentScriptType="application/ecmascript" contentStyleType="text/css" height="95px" preserveAspectRatio="none" style="width:204px;height:95px;" version="1.1" viewBox="0 0 204 95" width="204px" zoomAndPan="magnify"><defs><filter height="300%" id="fng6pouxx7z9p" width="300%" x="-1" y="-1"><feGaussianBlur result="blurOut" stdDeviation="2.0"/><feColorMatrix in="blurOut" result="blurOut2" type="matrix" values="0 0 0 0 0 0 0 0 0 0 0 0 0 0 0 0 0 0 .4 0"/><feOffset dx="4.0" dy="4.0" in="blurOut2" result="blurOut3"/><feBlend in="SourceGraphic" in2="blurOut3" mode="normal"/></filter></defs><g><!--MD5=[629eea003363eedc8acfc07986cdf5f9]
class com.github.teh_ard.Main--><a href="Main.html" target="_top" title="Main.html" xlink:actuate="onRequest" xlink:href="Main.html" xlink:show="new" xlink:title="Main.html" xlink:type="simple"><rect codeLine="5" fill="#FEFECE" filter="url(#fng6pouxx7z9p)" height="58.7422" id="com.github.teh_ard.Main" style="stroke: #A80036; stroke-width: 1.5;" width="135" x="28.5" y="7"/><ellipse cx="47.55" cy="25.9688" fill="#ADD1B2" rx="11" ry="11" style="stroke: #A80036; stroke-width: 1.0;"/><path d="M51.0656,30 L51.0656,32.0313 Q49.5813,32.6406 47.7531,32.6406 Q45.0344,32.6406 43.5813,30.9063 Q42.1281,29.1563 42.1281,26.0469 Q42.1281,23.0469 43.7063,21.2656 Q45.2844,19.4688 48.0031,19.4688 Q49.9094,19.4688 51.6438,20.3906 L50.6906,22.2969 Q49.1906,21.5156 48.0031,21.5156 Q46.3938,21.5156 45.4094,22.7344 Q44.4406,23.9375 44.4406,26.0625 Q44.4406,28.3125 45.3469,29.4531 Q46.2688,30.5938 48.0031,30.5938 Q49.0344,30.5938 51.0656,30 Z "/><text fill="#000000" font-family="sans-serif" font-size="14" lengthAdjust="spacingAndGlyphs" textLength="32" x="93.45" y="24.9951">Main</text><text fill="#000000" font-family="sans-serif" font-size="10" lengthAdjust="spacingAndGlyphs" textLength="94" x="62.45" y="37.5791">com.github.teh_ard</text><line style="stroke: #A80036; stroke-width: 1.5;" x1="29.5" x2="162.5" y1="44.9375" y2="44.9375"/><ellipse cx="39.5" cy="55.9375" fill="#84BE84" rx="3" ry="3" style="stroke: #038048; stroke-width: 1.0;"/><text fill="#000000" font-family="sans-serif" font-size="11" lengthAdjust="spacingAndGlyphs" text-decoration="underline" textLength="109" x="48.5" y="59.1479">main(String[]): void</text></a><text fill="#888888" font-family="sans-serif" font-size="10" lengthAdjust="spacingAndGlyphs" textLength="192" x="0" y="82.0244">UMLDoclet 2.0.12, PlantUML 1.2020.16</text><!--MD5=[10a81871b0f3a353b2fe507cef1dc17d]
@startuml
    set namespaceSeparator none
    hide empty fields
    hide empty methods

    class "<size:14>Main\n<size:10>com.github.teh_ard" as com.github.teh_ard.Main [[Main.html]] {
        {static} +main(String[]): void
    }

    center footer UMLDoclet 2.0.12, PlantUML 1.2020.16
@enduml

PlantUML version 1.2020.16(Sun Aug 23 22:20:43 CEST 2020)
(APACHE source distribution)
Java Runtime: OpenJDK Runtime Environment
JVM: OpenJDK 64-Bit Server VM
Default Encoding: UTF-8
Language: pl
Country: PL
--></g></svg>