<?xml version="1.0" encoding="UTF-8" standalone="no"?><svg xmlns="http://www.w3.org/2000/svg" xmlns:xlink="http://www.w3.org/1999/xlink" contentScriptType="application/ecmascript" contentStyleType="text/css" height="146px" preserveAspectRatio="none" style="width:208px;height:146px;" version="1.1" viewBox="0 0 208 146" width="208px" zoomAndPan="magnify"><defs><filter height="300%" id="fnroqzqjwv3tv" width="300%" x="-1" y="-1"><feGaussianBlur result="blurOut" stdDeviation="2.0"/><feColorMatrix in="blurOut" result="blurOut2" type="matrix" values="0 0 0 0 0 0 0 0 0 0 0 0 0 0 0 0 0 0 .4 0"/><feOffset dx="4.0" dy="4.0" in="blurOut2" result="blurOut3"/><feBlend in="SourceGraphic" in2="blurOut3" mode="normal"/></filter></defs><g><!--MD5=[81ee6034dd536f770cb8a5daa517389e]
cluster com.github.teh_ard--><polygon fill="#FFFFFF" filter="url(#fnroqzqjwv3tv)" points="18,6,176,6,183,28.2969,186,28.2969,186,118,18,118,18,6" style="stroke: #000000; stroke-width: 1.5;"/><line style="stroke: #000000; stroke-width: 1.5;" x1="18" x2="183" y1="28.2969" y2="28.2969"/><text fill="#000000" font-family="sans-serif" font-size="14" font-weight="bold" lengthAdjust="spacingAndGlyphs" textLength="152" x="22" y="20.9951">com.github.teh_ard</text><!--MD5=[629eea003363eedc8acfc07986cdf5f9]
class com.github.teh_ard.Main--><a href="Main.html" target="_top" title="Main.html" xlink:actuate="onRequest" xlink:href="Main.html" xlink:show="new" xlink:title="Main.html" xlink:type="simple"><rect codeLine="3" fill="#FEFECE" filter="url(#fnroqzqjwv3tv)" height="60.8047" id="com.github.teh_ard.Main" style="stroke: #A80036; stroke-width: 1.5;" width="135" x="34.5" y="41"/><ellipse cx="83.25" cy="57" fill="#ADD1B2" rx="11" ry="11" style="stroke: #A80036; stroke-width: 1.0;"/><path d="M86.7656,61.0313 L86.7656,63.0625 Q85.2813,63.6719 83.4531,63.6719 Q80.7344,63.6719 79.2813,61.9375 Q77.8281,60.1875 77.8281,57.0781 Q77.8281,54.0781 79.4063,52.2969 Q80.9844,50.5 83.7031,50.5 Q85.6094,50.5 87.3438,51.4219 L86.3906,53.3281 Q84.8906,52.5469 83.7031,52.5469 Q82.0938,52.5469 81.1094,53.7656 Q80.1406,54.9688 80.1406,57.0938 Q80.1406,59.3438 81.0469,60.4844 Q81.9688,61.625 83.7031,61.625 Q84.7344,61.625 86.7656,61.0313 Z "/><text fill="#000000" font-family="sans-serif" font-size="12" lengthAdjust="spacingAndGlyphs" textLength="29" x="103.75" y="61.1543">Main</text><line style="stroke: #A80036; stroke-width: 1.5;" x1="35.5" x2="168.5" y1="73" y2="73"/><line style="stroke: #A80036; stroke-width: 1.5;" x1="35.5" x2="168.5" y1="81" y2="81"/><ellipse cx="45.5" cy="92" fill="#84BE84" rx="3" ry="3" style="stroke: #038048; stroke-width: 1.0;"/><text fill="#000000" font-family="sans-serif" font-size="11" lengthAdjust="spacingAndGlyphs" text-decoration="underline" textLength="109" x="54.5" y="95.2104">main(String[]): void</text></a><text fill="#888888" font-family="sans-serif" font-size="10" lengthAdjust="spacingAndGlyphs" textLength="192" x="0" y="133.2822">UMLDoclet 2.0.12, PlantUML 1.2020.16</text><!--MD5=[4472b0ca57379fd01d62720223bc9737]
@startuml
    namespace com.github.teh_ard {

        class Main [[Main.html]] {
            {static} +main(String[]): void
        }

    }

    center footer UMLDoclet 2.0.12, PlantUML 1.2020.16
@enduml

PlantUML version 1.2020.16(Sun Aug 23 22:20:43 CEST 2020)
(APACHE source distribution)
Java Runtime: OpenJDK Runtime Environment
JVM: OpenJDK 64-Bit Server VM
Default Encoding: UTF-8
Language: pl
Country: PL
--></g></svg>