<?xml version="1.0" encoding="UTF-8" standalone="no"?><svg xmlns="http://www.w3.org/2000/svg" xmlns:xlink="http://www.w3.org/1999/xlink" contentScriptType="application/ecmascript" contentStyleType="text/css" height="184px" preserveAspectRatio="none" style="width:408px;height:184px;" version="1.1" viewBox="0 0 408 184" width="408px" zoomAndPan="magnify"><defs><filter height="300%" id="f1x0mxvy3esf28" width="300%" x="-1" y="-1"><feGaussianBlur result="blurOut" stdDeviation="2.0"/><feColorMatrix in="blurOut" result="blurOut2" type="matrix" values="0 0 0 0 0 0 0 0 0 0 0 0 0 0 0 0 0 0 .4 0"/><feOffset dx="4.0" dy="4.0" in="blurOut2" result="blurOut3"/><feBlend in="SourceGraphic" in2="blurOut3" mode="normal"/></filter></defs><g><!--MD5=[a2ce21a01e8db48d54a5ad2d57cacf50]
cluster com.github.teh_ard.simulation.map--><polygon fill="#FFFFFF" filter="url(#f1x0mxvy3esf28)" points="16,6,297,6,304,28.2969,386,28.2969,386,156,16,156,16,6" style="stroke: #000000; stroke-width: 1.5;"/><line style="stroke: #000000; stroke-width: 1.5;" x1="16" x2="304" y1="28.2969" y2="28.2969"/><text fill="#000000" font-family="sans-serif" font-size="14" font-weight="bold" lengthAdjust="spacingAndGlyphs" textLength="275" x="20" y="20.9951">com.github.teh_ard.simulation.map</text><!--MD5=[59fd4a8b3123d427eb4d050d07389704]
class com.github.teh_ard.simulation.map.SimMap--><a href="SimMap.html" target="_top" title="SimMap.html" xlink:actuate="onRequest" xlink:href="SimMap.html" xlink:show="new" xlink:title="SimMap.html" xlink:type="simple"><rect codeLine="3" fill="#FEFECE" filter="url(#f1x0mxvy3esf28)" height="99.2188" id="com.github.teh_ard.simulation.map.SimMap" style="stroke: #A80036; stroke-width: 1.5;" width="337" x="32.5" y="41"/><ellipse cx="172.75" cy="57" fill="#ADD1B2" rx="11" ry="11" style="stroke: #A80036; stroke-width: 1.0;"/><path d="M176.2656,61.0313 L176.2656,63.0625 Q174.7813,63.6719 172.9531,63.6719 Q170.2344,63.6719 168.7813,61.9375 Q167.3281,60.1875 167.3281,57.0781 Q167.3281,54.0781 168.9063,52.2969 Q170.4844,50.5 173.2031,50.5 Q175.1094,50.5 176.8438,51.4219 L175.8906,53.3281 Q174.3906,52.5469 173.2031,52.5469 Q171.5938,52.5469 170.6094,53.7656 Q169.6406,54.9688 169.6406,57.0938 Q169.6406,59.3438 170.5469,60.4844 Q171.4688,61.625 173.2031,61.625 Q174.2344,61.625 176.2656,61.0313 Z "/><text fill="#000000" font-family="sans-serif" font-size="12" lengthAdjust="spacingAndGlyphs" textLength="48" x="193.25" y="61.1543">SimMap</text><line style="stroke: #A80036; stroke-width: 1.5;" x1="33.5" x2="368.5" y1="73" y2="73"/><line style="stroke: #A80036; stroke-width: 1.5;" x1="33.5" x2="368.5" y1="81" y2="81"/><ellipse cx="43.5" cy="92" fill="#84BE84" rx="3" ry="3" style="stroke: #038048; stroke-width: 1.0;"/><text fill="#000000" font-family="sans-serif" font-size="11" lengthAdjust="spacingAndGlyphs" textLength="67" x="52.5" y="95.2104">SimMap(int)</text><ellipse cx="43.5" cy="104.8047" fill="#84BE84" rx="3" ry="3" style="stroke: #038048; stroke-width: 1.0;"/><text fill="#000000" font-family="sans-serif" font-size="11" lengthAdjust="spacingAndGlyphs" textLength="208" x="52.5" y="108.0151">addPerson(Person, double, int): void</text><ellipse cx="43.5" cy="117.6094" fill="#84BE84" rx="3" ry="3" style="stroke: #038048; stroke-width: 1.0;"/><text fill="#000000" font-family="sans-serif" font-size="11" lengthAdjust="spacingAndGlyphs" textLength="150" x="52.5" y="120.8198">getPeople(): List&lt;Person&gt;</text><ellipse cx="43.5" cy="130.4141" fill="#84BE84" rx="3" ry="3" style="stroke: #038048; stroke-width: 1.0;"/><text fill="#000000" font-family="sans-serif" font-size="11" lengthAdjust="spacingAndGlyphs" textLength="311" x="52.5" y="133.6245">getSectors(): Map&lt;Integer, Map&lt;Integer, Rectangle&gt;&gt;</text></a><text fill="#888888" font-family="sans-serif" font-size="10" lengthAdjust="spacingAndGlyphs" textLength="192" x="99" y="171.2822">UMLDoclet 2.0.12, PlantUML 1.2020.16</text><!--MD5=[9a0da5a29a4b7ebaf5660a29dafc7691]
@startuml
    namespace com.github.teh_ard.simulation.map {

        class SimMap [[SimMap.html]] {
            +SimMap(int)
            +addPerson(Person, double, int): void
            +getPeople(): List<Person>
            +getSectors(): Map<Integer, Map<Integer, Rectangle>>
        }

    }

    center footer UMLDoclet 2.0.12, PlantUML 1.2020.16
@enduml

PlantUML version 1.2020.16(Sun Aug 23 22:20:43 CEST 2020)
(APACHE source distribution)
Java Runtime: OpenJDK Runtime Environment
JVM: OpenJDK 64-Bit Server VM
Default Encoding: UTF-8
Language: pl
Country: PL
--></g></svg>