<?xml version="1.0" encoding="UTF-8" standalone="no"?><svg xmlns="http://www.w3.org/2000/svg" xmlns:xlink="http://www.w3.org/1999/xlink" contentScriptType="application/ecmascript" contentStyleType="text/css" height="271px" preserveAspectRatio="none" style="width:216px;height:271px;" version="1.1" viewBox="0 0 216 271" width="216px" zoomAndPan="magnify"><defs><filter height="300%" id="f1jhlq6is1cb9n" width="300%" x="-1" y="-1"><feGaussianBlur result="blurOut" stdDeviation="2.0"/><feColorMatrix in="blurOut" result="blurOut2" type="matrix" values="0 0 0 0 0 0 0 0 0 0 0 0 0 0 0 0 0 0 .4 0"/><feOffset dx="4.0" dy="4.0" in="blurOut2" result="blurOut3"/><feBlend in="SourceGraphic" in2="blurOut3" mode="normal"/></filter></defs><g><!--MD5=[1c9ad96377c7863514ed1b7a92991e97]
class com.github.teh_ard.person.Elder--><a href="Elder.html" target="_top" title="Elder.html" xlink:actuate="onRequest" xlink:href="Elder.html" xlink:show="new" xlink:title="Elder.html" xlink:type="simple"><rect codeLine="5" fill="#FEFECE" filter="url(#f1jhlq6is1cb9n)" height="84.3516" id="com.github.teh_ard.person.Elder" style="stroke: #A80036; stroke-width: 1.5;" width="188" x="9" y="151"/><ellipse cx="35.7" cy="169.9688" fill="#ADD1B2" rx="11" ry="11" style="stroke: #A80036; stroke-width: 1.0;"/><path d="M39.2156,174 L39.2156,176.0313 Q37.7313,176.6406 35.9031,176.6406 Q33.1844,176.6406 31.7313,174.9063 Q30.2781,173.1563 30.2781,170.0469 Q30.2781,167.0469 31.8563,165.2656 Q33.4344,163.4688 36.1531,163.4688 Q38.0594,163.4688 39.7938,164.3906 L38.8406,166.2969 Q37.3406,165.5156 36.1531,165.5156 Q34.5438,165.5156 33.5594,166.7344 Q32.5906,167.9375 32.5906,170.0625 Q32.5906,172.3125 33.4969,173.4531 Q34.4188,174.5938 36.1531,174.5938 Q37.1844,174.5938 39.2156,174 Z "/><text fill="#000000" font-family="sans-serif" font-size="14" lengthAdjust="spacingAndGlyphs" textLength="35" x="99.8" y="168.9951">Elder</text><text fill="#000000" font-family="sans-serif" font-size="10" lengthAdjust="spacingAndGlyphs" textLength="130" x="52.3" y="181.5791">com.github.teh_ard.person</text><line style="stroke: #A80036; stroke-width: 1.5;" x1="10" x2="196" y1="188.9375" y2="188.9375"/><ellipse cx="20" cy="199.9375" fill="#84BE84" rx="3" ry="3" style="stroke: #038048; stroke-width: 1.0;"/><text fill="#000000" font-family="sans-serif" font-size="11" lengthAdjust="spacingAndGlyphs" textLength="152" x="29" y="203.1479">canInfect(Person): boolean</text><ellipse cx="20" cy="212.7422" fill="#84BE84" rx="3" ry="3" style="stroke: #038048; stroke-width: 1.0;"/><text fill="#000000" font-family="sans-serif" font-size="11" lengthAdjust="spacingAndGlyphs" textLength="106" x="29" y="215.9526">getMaxSpeed(): int</text><polygon fill="#FFFF44" points="20,220.5469,24,224.5469,20,228.5469,16,224.5469" style="stroke: #B38D22; stroke-width: 1.0;"/><text fill="#000000" font-family="sans-serif" font-size="11" lengthAdjust="spacingAndGlyphs" textLength="162" x="29" y="228.7573">getDeathThreshold(): double</text></a><!--MD5=[bb7e60a88a790f3e703a4fa22788c33f]
class com.github.teh_ard.person.Person--><a href="Person.html" target="_top" title="Person.html" xlink:actuate="onRequest" xlink:href="Person.html" xlink:show="new" xlink:title="Person.html" xlink:type="simple"><rect codeLine="11" fill="#FEFECE" filter="url(#f1jhlq6is1cb9n)" height="84.3516" id="com.github.teh_ard.person.Person" style="stroke: #A80036; stroke-width: 1.5;" width="187" x="9.5" y="7"/><ellipse cx="34.85" cy="25.9688" fill="#A9DCDF" rx="11" ry="11" style="stroke: #A80036; stroke-width: 1.0;"/><path d="M37.7719,31.4688 L36.5844,27.7031 L33.0063,27.7031 L31.7875,31.4688 L29.5063,31.4688 L33.725,18.5938 L35.85,18.5938 L40.0844,31.4688 L37.7719,31.4688 Z M35.9281,25.6563 L34.9594,22.5781 Q34.6313,21.5469 34.7875,21.4531 Q34.9438,21.5 34.725,22.2344 L33.6625,25.6563 L35.9281,25.6563 Z "/><text fill="#000000" font-family="sans-serif" font-size="14" font-style="italic" lengthAdjust="spacingAndGlyphs" textLength="47" x="93.65" y="24.9951">Person</text><text fill="#000000" font-family="sans-serif" font-size="10" font-style="italic" lengthAdjust="spacingAndGlyphs" textLength="132" x="51.15" y="37.5791">com.github.teh_ard.person</text><line style="stroke: #A80036; stroke-width: 1.5;" x1="10.5" x2="195.5" y1="44.9375" y2="44.9375"/><ellipse cx="20.5" cy="55.9375" fill="#84BE84" rx="3" ry="3" style="stroke: #038048; stroke-width: 1.0;"/><text fill="#000000" font-family="sans-serif" font-size="11" font-style="italic" lengthAdjust="spacingAndGlyphs" textLength="151" x="29.5" y="59.1479">canInfect(Person): boolean</text><ellipse cx="20.5" cy="68.7422" fill="#84BE84" rx="3" ry="3" style="stroke: #038048; stroke-width: 1.0;"/><text fill="#000000" font-family="sans-serif" font-size="11" font-style="italic" lengthAdjust="spacingAndGlyphs" textLength="106" x="29.5" y="71.9526">getMaxSpeed(): int</text><polygon fill="#FFFF44" points="20.5,76.5469,24.5,80.5469,20.5,84.5469,16.5,80.5469" style="stroke: #B38D22; stroke-width: 1.0;"/><text fill="#000000" font-family="sans-serif" font-size="11" font-style="italic" lengthAdjust="spacingAndGlyphs" textLength="161" x="29.5" y="84.7573">getDeathThreshold(): double</text></a><!--MD5=[086d58c9cd5f58eeb066721f652f52ca]
reverse link com.github.teh_ard.person.Person to com.github.teh_ard.person.Elder--><path codeLine="17" d="M103,111.26 C103,124.52 103,138.24 103,150.53 " fill="none" id="com.github.teh_ard.person.Person-backto-com.github.teh_ard.person.Elder" style="stroke: #A80036; stroke-width: 1.0;"/><polygon fill="none" points="96,111.07,103,91.07,110,111.07,96,111.07" style="stroke: #A80036; stroke-width: 1.0;"/><text fill="#888888" font-family="sans-serif" font-size="10" lengthAdjust="spacingAndGlyphs" textLength="192" x="3" y="257.6338">UMLDoclet 2.0.12, PlantUML 1.2020.16</text><!--MD5=[2e8b1b24833fd11c20c37ce762c7425e]
@startuml
    set namespaceSeparator none
    hide empty fields
    hide empty methods

    class "<size:14>Elder\n<size:10>com.github.teh_ard.person" as com.github.teh_ard.person.Elder [[Elder.html]] {
        +canInfect(Person): boolean
        +getMaxSpeed(): int
        #getDeathThreshold(): double
    }

    abstract class "<size:14>Person\n<size:10>com.github.teh_ard.person" as com.github.teh_ard.person.Person [[Person.html]] {
        {abstract} +canInfect(Person): boolean
        {abstract} +getMaxSpeed(): int
        {abstract} #getDeathThreshold(): double
    }

    com.github.teh_ard.person.Person <|- - com.github.teh_ard.person.Elder

    center footer UMLDoclet 2.0.12, PlantUML 1.2020.16
@enduml

PlantUML version 1.2020.16(Sun Aug 23 22:20:43 CEST 2020)
(APACHE source distribution)
Java Runtime: OpenJDK Runtime Environment
JVM: OpenJDK 64-Bit Server VM
Default Encoding: UTF-8
Language: pl
Country: PL
--></g></svg>