<?xml version="1.0" encoding="UTF-8" standalone="no"?><svg xmlns="http://www.w3.org/2000/svg" xmlns:xlink="http://www.w3.org/1999/xlink" contentScriptType="application/ecmascript" contentStyleType="text/css" height="655px" preserveAspectRatio="none" style="width:704px;height:655px;" version="1.1" viewBox="0 0 704 655" width="704px" zoomAndPan="magnify"><defs><filter height="300%" id="fjtt9vzgane6k" width="300%" x="-1" y="-1"><feGaussianBlur result="blurOut" stdDeviation="2.0"/><feColorMatrix in="blurOut" result="blurOut2" type="matrix" values="0 0 0 0 0 0 0 0 0 0 0 0 0 0 0 0 0 0 .4 0"/><feOffset dx="4.0" dy="4.0" in="blurOut2" result="blurOut3"/><feBlend in="SourceGraphic" in2="blurOut3" mode="normal"/></filter></defs><g><!--MD5=[1d94b2a77aeb8de4b62b1a3436af078a]
cluster com.github.teh_ard.person--><polygon fill="#FFFFFF" filter="url(#fjtt9vzgane6k)" points="16,6,235,6,242,28.2969,682,28.2969,682,627,16,627,16,6" style="stroke: #000000; stroke-width: 1.5;"/><line style="stroke: #000000; stroke-width: 1.5;" x1="16" x2="242" y1="28.2969" y2="28.2969"/><text fill="#000000" font-family="sans-serif" font-size="14" font-weight="bold" lengthAdjust="spacingAndGlyphs" textLength="213" x="20" y="20.9951">com.github.teh_ard.person</text><!--MD5=[6db903994374aaa6521005dfc81151ea]
class com.github.teh_ard.person.Doctor--><a href="Doctor.html" target="_top" title="Doctor.html" xlink:actuate="onRequest" xlink:href="Doctor.html" xlink:show="new" xlink:title="Doctor.html" xlink:type="simple"><rect codeLine="3" fill="#FEFECE" filter="url(#fjtt9vzgane6k)" height="86.4141" id="com.github.teh_ard.person.Doctor" style="stroke: #A80036; stroke-width: 1.5;" width="188" x="32" y="525"/><ellipse cx="100.75" cy="541" fill="#ADD1B2" rx="11" ry="11" style="stroke: #A80036; stroke-width: 1.0;"/><path d="M104.2656,545.0313 L104.2656,547.0625 Q102.7813,547.6719 100.9531,547.6719 Q98.2344,547.6719 96.7813,545.9375 Q95.3281,544.1875 95.3281,541.0781 Q95.3281,538.0781 96.9063,536.2969 Q98.4844,534.5 101.2031,534.5 Q103.1094,534.5 104.8438,535.4219 L103.8906,537.3281 Q102.3906,536.5469 101.2031,536.5469 Q99.5938,536.5469 98.6094,537.7656 Q97.6406,538.9688 97.6406,541.0938 Q97.6406,543.3438 98.5469,544.4844 Q99.4688,545.625 101.2031,545.625 Q102.2344,545.625 104.2656,545.0313 Z "/><text fill="#000000" font-family="sans-serif" font-size="12" lengthAdjust="spacingAndGlyphs" textLength="42" x="121.25" y="545.1543">Doctor</text><line style="stroke: #A80036; stroke-width: 1.5;" x1="33" x2="219" y1="557" y2="557"/><line style="stroke: #A80036; stroke-width: 1.5;" x1="33" x2="219" y1="565" y2="565"/><ellipse cx="43" cy="576" fill="#84BE84" rx="3" ry="3" style="stroke: #038048; stroke-width: 1.0;"/><text fill="#000000" font-family="sans-serif" font-size="11" lengthAdjust="spacingAndGlyphs" textLength="152" x="52" y="579.2104">canInfect(Person): boolean</text><polygon fill="#FFFF44" points="43,583.8047,47,587.8047,43,591.8047,39,587.8047" style="stroke: #B38D22; stroke-width: 1.0;"/><text fill="#000000" font-family="sans-serif" font-size="11" lengthAdjust="spacingAndGlyphs" textLength="162" x="52" y="592.0151">getDeathThreshold(): double</text><ellipse cx="43" cy="601.6094" fill="#84BE84" rx="3" ry="3" style="stroke: #038048; stroke-width: 1.0;"/><text fill="#000000" font-family="sans-serif" font-size="11" lengthAdjust="spacingAndGlyphs" textLength="123" x="52" y="604.8198">update(SimMap): void</text></a><!--MD5=[193d6b090e217a5f5bd6df6956e39dd5]
class com.github.teh_ard.person.Adult--><a href="Adult.html" target="_top" title="Adult.html" xlink:actuate="onRequest" xlink:href="Adult.html" xlink:show="new" xlink:title="Adult.html" xlink:type="simple"><rect codeLine="9" fill="#FEFECE" filter="url(#fjtt9vzgane6k)" height="86.4141" id="com.github.teh_ard.person.Adult" style="stroke: #A80036; stroke-width: 1.5;" width="188" x="32" y="379"/><ellipse cx="105.75" cy="395" fill="#ADD1B2" rx="11" ry="11" style="stroke: #A80036; stroke-width: 1.0;"/><path d="M109.2656,399.0313 L109.2656,401.0625 Q107.7813,401.6719 105.9531,401.6719 Q103.2344,401.6719 101.7813,399.9375 Q100.3281,398.1875 100.3281,395.0781 Q100.3281,392.0781 101.9063,390.2969 Q103.4844,388.5 106.2031,388.5 Q108.1094,388.5 109.8438,389.4219 L108.8906,391.3281 Q107.3906,390.5469 106.2031,390.5469 Q104.5938,390.5469 103.6094,391.7656 Q102.6406,392.9688 102.6406,395.0938 Q102.6406,397.3438 103.5469,398.4844 Q104.4688,399.625 106.2031,399.625 Q107.2344,399.625 109.2656,399.0313 Z "/><text fill="#000000" font-family="sans-serif" font-size="12" lengthAdjust="spacingAndGlyphs" textLength="32" x="126.25" y="399.1543">Adult</text><line style="stroke: #A80036; stroke-width: 1.5;" x1="33" x2="219" y1="411" y2="411"/><line style="stroke: #A80036; stroke-width: 1.5;" x1="33" x2="219" y1="419" y2="419"/><ellipse cx="43" cy="430" fill="#84BE84" rx="3" ry="3" style="stroke: #038048; stroke-width: 1.0;"/><text fill="#000000" font-family="sans-serif" font-size="11" lengthAdjust="spacingAndGlyphs" textLength="152" x="52" y="433.2104">canInfect(Person): boolean</text><ellipse cx="43" cy="442.8047" fill="#84BE84" rx="3" ry="3" style="stroke: #038048; stroke-width: 1.0;"/><text fill="#000000" font-family="sans-serif" font-size="11" lengthAdjust="spacingAndGlyphs" textLength="106" x="52" y="446.0151">getMaxSpeed(): int</text><polygon fill="#FFFF44" points="43,450.6094,47,454.6094,43,458.6094,39,454.6094" style="stroke: #B38D22; stroke-width: 1.0;"/><text fill="#000000" font-family="sans-serif" font-size="11" lengthAdjust="spacingAndGlyphs" textLength="162" x="52" y="458.8198">getDeathThreshold(): double</text></a><!--MD5=[1c9ad96377c7863514ed1b7a92991e97]
class com.github.teh_ard.person.Elder--><a href="Elder.html" target="_top" title="Elder.html" xlink:actuate="onRequest" xlink:href="Elder.html" xlink:show="new" xlink:title="Elder.html" xlink:type="simple"><rect codeLine="15" fill="#FEFECE" filter="url(#fjtt9vzgane6k)" height="86.4141" id="com.github.teh_ard.person.Elder" style="stroke: #A80036; stroke-width: 1.5;" width="188" x="255" y="379"/><ellipse cx="328.75" cy="395" fill="#ADD1B2" rx="11" ry="11" style="stroke: #A80036; stroke-width: 1.0;"/><path d="M332.2656,399.0313 L332.2656,401.0625 Q330.7813,401.6719 328.9531,401.6719 Q326.2344,401.6719 324.7813,399.9375 Q323.3281,398.1875 323.3281,395.0781 Q323.3281,392.0781 324.9063,390.2969 Q326.4844,388.5 329.2031,388.5 Q331.1094,388.5 332.8438,389.4219 L331.8906,391.3281 Q330.3906,390.5469 329.2031,390.5469 Q327.5938,390.5469 326.6094,391.7656 Q325.6406,392.9688 325.6406,395.0938 Q325.6406,397.3438 326.5469,398.4844 Q327.4688,399.625 329.2031,399.625 Q330.2344,399.625 332.2656,399.0313 Z "/><text fill="#000000" font-family="sans-serif" font-size="12" lengthAdjust="spacingAndGlyphs" textLength="32" x="349.25" y="399.1543">Elder</text><line style="stroke: #A80036; stroke-width: 1.5;" x1="256" x2="442" y1="411" y2="411"/><line style="stroke: #A80036; stroke-width: 1.5;" x1="256" x2="442" y1="419" y2="419"/><ellipse cx="266" cy="430" fill="#84BE84" rx="3" ry="3" style="stroke: #038048; stroke-width: 1.0;"/><text fill="#000000" font-family="sans-serif" font-size="11" lengthAdjust="spacingAndGlyphs" textLength="152" x="275" y="433.2104">canInfect(Person): boolean</text><ellipse cx="266" cy="442.8047" fill="#84BE84" rx="3" ry="3" style="stroke: #038048; stroke-width: 1.0;"/><text fill="#000000" font-family="sans-serif" font-size="11" lengthAdjust="spacingAndGlyphs" textLength="106" x="275" y="446.0151">getMaxSpeed(): int</text><polygon fill="#FFFF44" points="266,450.6094,270,454.6094,266,458.6094,262,454.6094" style="stroke: #B38D22; stroke-width: 1.0;"/><text fill="#000000" font-family="sans-serif" font-size="11" lengthAdjust="spacingAndGlyphs" textLength="162" x="275" y="458.8198">getDeathThreshold(): double</text></a><!--MD5=[bb7e60a88a790f3e703a4fa22788c33f]
class com.github.teh_ard.person.Person--><a href="Person.html" target="_top" title="Person.html" xlink:actuate="onRequest" xlink:href="Person.html" xlink:show="new" xlink:title="Person.html" xlink:type="simple"><rect codeLine="21" fill="#FEFECE" filter="url(#fjtt9vzgane6k)" height="278.4844" id="com.github.teh_ard.person.Person" style="stroke: #A80036; stroke-width: 1.5;" width="223" x="237.5" y="41"/><ellipse cx="323.75" cy="57" fill="#A9DCDF" rx="11" ry="11" style="stroke: #A80036; stroke-width: 1.0;"/><path d="M326.6719,62.5 L325.4844,58.7344 L321.9063,58.7344 L320.6875,62.5 L318.4063,62.5 L322.625,49.625 L324.75,49.625 L328.9844,62.5 L326.6719,62.5 Z M324.8281,56.6875 L323.8594,53.6094 Q323.5313,52.5781 323.6875,52.4844 Q323.8438,52.5313 323.625,53.2656 L322.5625,56.6875 L324.8281,56.6875 Z "/><text fill="#000000" font-family="sans-serif" font-size="12" font-style="italic" lengthAdjust="spacingAndGlyphs" textLength="42" x="344.25" y="61.1543">Person</text><line style="stroke: #A80036; stroke-width: 1.5;" x1="238.5" x2="459.5" y1="73" y2="73"/><line style="stroke: #A80036; stroke-width: 1.5;" x1="238.5" x2="459.5" y1="81" y2="81"/><ellipse cx="248.5" cy="92" fill="#84BE84" rx="3" ry="3" style="stroke: #038048; stroke-width: 1.0;"/><text fill="#000000" font-family="sans-serif" font-size="11" font-style="italic" lengthAdjust="spacingAndGlyphs" textLength="151" x="257.5" y="95.2104">canInfect(Person): boolean</text><ellipse cx="248.5" cy="104.8047" fill="#84BE84" rx="3" ry="3" style="stroke: #038048; stroke-width: 1.0;"/><text fill="#000000" font-family="sans-serif" font-size="11" font-style="italic" lengthAdjust="spacingAndGlyphs" textLength="106" x="257.5" y="108.0151">getMaxSpeed(): int</text><polygon fill="#FFFF44" points="248.5,112.6094,252.5,116.6094,248.5,120.6094,244.5,116.6094" style="stroke: #B38D22; stroke-width: 1.0;"/><text fill="#000000" font-family="sans-serif" font-size="11" font-style="italic" lengthAdjust="spacingAndGlyphs" textLength="161" x="257.5" y="120.8198">getDeathThreshold(): double</text><ellipse cx="248.5" cy="130.4141" fill="#84BE84" rx="3" ry="3" style="stroke: #038048; stroke-width: 1.0;"/><text fill="#000000" font-family="sans-serif" font-size="11" lengthAdjust="spacingAndGlyphs" textLength="147" x="257.5" y="133.6245">setInfected(boolean): void</text><ellipse cx="248.5" cy="143.2188" fill="#84BE84" rx="3" ry="3" style="stroke: #038048; stroke-width: 1.0;"/><text fill="#000000" font-family="sans-serif" font-size="11" lengthAdjust="spacingAndGlyphs" textLength="116" x="257.5" y="146.4292">isInfected(): boolean</text><ellipse cx="248.5" cy="156.0234" fill="#84BE84" rx="3" ry="3" style="stroke: #038048; stroke-width: 1.0;"/><text fill="#000000" font-family="sans-serif" font-size="11" lengthAdjust="spacingAndGlyphs" textLength="100" x="257.5" y="159.2339">isDead(): boolean</text><ellipse cx="248.5" cy="168.8281" fill="#84BE84" rx="3" ry="3" style="stroke: #038048; stroke-width: 1.0;"/><text fill="#000000" font-family="sans-serif" font-size="11" lengthAdjust="spacingAndGlyphs" textLength="117" x="257.5" y="172.0386">shouldDie(): boolean</text><ellipse cx="248.5" cy="181.6328" fill="#84BE84" rx="3" ry="3" style="stroke: #038048; stroke-width: 1.0;"/><text fill="#000000" font-family="sans-serif" font-size="11" lengthAdjust="spacingAndGlyphs" textLength="70" x="257.5" y="184.8433">move(): void</text><ellipse cx="248.5" cy="194.4375" fill="#84BE84" rx="3" ry="3" style="stroke: #038048; stroke-width: 1.0;"/><text fill="#000000" font-family="sans-serif" font-size="11" lengthAdjust="spacingAndGlyphs" textLength="85" x="257.5" y="197.6479">rollSector(): int</text><ellipse cx="248.5" cy="207.2422" fill="#84BE84" rx="3" ry="3" style="stroke: #038048; stroke-width: 1.0;"/><text fill="#000000" font-family="sans-serif" font-size="11" lengthAdjust="spacingAndGlyphs" textLength="194" x="257.5" y="210.4526">setSectors(List&lt;Rectangle&gt;): void</text><ellipse cx="248.5" cy="220.0469" fill="#84BE84" rx="3" ry="3" style="stroke: #038048; stroke-width: 1.0;"/><text fill="#000000" font-family="sans-serif" font-size="11" lengthAdjust="spacingAndGlyphs" textLength="197" x="257.5" y="223.2573">getNearby(SimMap): List&lt;Person&gt;</text><ellipse cx="248.5" cy="232.8516" fill="#84BE84" rx="3" ry="3" style="stroke: #038048; stroke-width: 1.0;"/><text fill="#000000" font-family="sans-serif" font-size="11" lengthAdjust="spacingAndGlyphs" textLength="123" x="257.5" y="236.062">update(SimMap): void</text><ellipse cx="248.5" cy="245.6563" fill="#84BE84" rx="3" ry="3" style="stroke: #038048; stroke-width: 1.0;"/><text fill="#000000" font-family="sans-serif" font-size="11" lengthAdjust="spacingAndGlyphs" textLength="153" x="257.5" y="248.8667">setPosition(MapPoint): void</text><ellipse cx="248.5" cy="258.4609" fill="#84BE84" rx="3" ry="3" style="stroke: #038048; stroke-width: 1.0;"/><text fill="#000000" font-family="sans-serif" font-size="11" lengthAdjust="spacingAndGlyphs" textLength="130" x="257.5" y="261.6714">getPosition(): MapPoint</text><ellipse cx="248.5" cy="271.2656" fill="#84BE84" rx="3" ry="3" style="stroke: #038048; stroke-width: 1.0;"/><text fill="#000000" font-family="sans-serif" font-size="11" lengthAdjust="spacingAndGlyphs" textLength="127" x="257.5" y="274.4761">setDied(boolean): void</text><ellipse cx="248.5" cy="284.0703" fill="#84BE84" rx="3" ry="3" style="stroke: #038048; stroke-width: 1.0;"/><text fill="#000000" font-family="sans-serif" font-size="11" lengthAdjust="spacingAndGlyphs" textLength="129" x="257.5" y="287.2808">wasInfected(): boolean</text><ellipse cx="248.5" cy="296.875" fill="#84BE84" rx="3" ry="3" style="stroke: #038048; stroke-width: 1.0;"/><text fill="#000000" font-family="sans-serif" font-size="11" lengthAdjust="spacingAndGlyphs" textLength="171" x="257.5" y="300.0854">setLethalityLevel(double): void</text><ellipse cx="248.5" cy="309.6797" fill="#84BE84" rx="3" ry="3" style="stroke: #038048; stroke-width: 1.0;"/><text fill="#000000" font-family="sans-serif" font-size="11" lengthAdjust="spacingAndGlyphs" textLength="160" x="257.5" y="312.8901">setIncubationValue(int): void</text></a><!--MD5=[2f3095a7b83faa83fe77088580295643]
class com.github.teh_ard.person.Child--><a href="Child.html" target="_top" title="Child.html" xlink:actuate="onRequest" xlink:href="Child.html" xlink:show="new" xlink:title="Child.html" xlink:type="simple"><rect codeLine="42" fill="#FEFECE" filter="url(#fjtt9vzgane6k)" height="86.4141" id="com.github.teh_ard.person.Child" style="stroke: #A80036; stroke-width: 1.5;" width="188" x="478" y="379"/><ellipse cx="552.75" cy="395" fill="#ADD1B2" rx="11" ry="11" style="stroke: #A80036; stroke-width: 1.0;"/><path d="M556.2656,399.0313 L556.2656,401.0625 Q554.7813,401.6719 552.9531,401.6719 Q550.2344,401.6719 548.7813,399.9375 Q547.3281,398.1875 547.3281,395.0781 Q547.3281,392.0781 548.9063,390.2969 Q550.4844,388.5 553.2031,388.5 Q555.1094,388.5 556.8438,389.4219 L555.8906,391.3281 Q554.3906,390.5469 553.2031,390.5469 Q551.5938,390.5469 550.6094,391.7656 Q549.6406,392.9688 549.6406,395.0938 Q549.6406,397.3438 550.5469,398.4844 Q551.4688,399.625 553.2031,399.625 Q554.2344,399.625 556.2656,399.0313 Z "/><text fill="#000000" font-family="sans-serif" font-size="12" lengthAdjust="spacingAndGlyphs" textLength="30" x="573.25" y="399.1543">Child</text><line style="stroke: #A80036; stroke-width: 1.5;" x1="479" x2="665" y1="411" y2="411"/><line style="stroke: #A80036; stroke-width: 1.5;" x1="479" x2="665" y1="419" y2="419"/><ellipse cx="489" cy="430" fill="#84BE84" rx="3" ry="3" style="stroke: #038048; stroke-width: 1.0;"/><text fill="#000000" font-family="sans-serif" font-size="11" lengthAdjust="spacingAndGlyphs" textLength="152" x="498" y="433.2104">canInfect(Person): boolean</text><ellipse cx="489" cy="442.8047" fill="#84BE84" rx="3" ry="3" style="stroke: #038048; stroke-width: 1.0;"/><text fill="#000000" font-family="sans-serif" font-size="11" lengthAdjust="spacingAndGlyphs" textLength="106" x="498" y="446.0151">getMaxSpeed(): int</text><polygon fill="#FFFF44" points="489,450.6094,493,454.6094,489,458.6094,485,454.6094" style="stroke: #B38D22; stroke-width: 1.0;"/><text fill="#000000" font-family="sans-serif" font-size="11" lengthAdjust="spacingAndGlyphs" textLength="162" x="498" y="458.8198">getDeathThreshold(): double</text></a><!--MD5=[00d342350b9a2be4b13f0bdee0f4be91]
reverse link com.github.teh_ard.person.Adult to com.github.teh_ard.person.Doctor--><path codeLine="48" d="M126,485.29 C126,498.58 126,512.33 126,524.66 " fill="none" id="com.github.teh_ard.person.Adult-backto-com.github.teh_ard.person.Doctor" style="stroke: #A80036; stroke-width: 1.0;"/><polygon fill="none" points="119,485.04,126,465.04,133,485.04,119,485.04" style="stroke: #A80036; stroke-width: 1.0;"/><!--MD5=[9bdbe92fa78233df753052cf1e15a56e]
reverse link com.github.teh_ard.person.Person to com.github.teh_ard.person.Adult--><path codeLine="49" d="M223.81,315.74 C202.5,338.67 181.87,360.87 165.1,378.92 " fill="none" id="com.github.teh_ard.person.Person-backto-com.github.teh_ard.person.Adult" style="stroke: #A80036; stroke-width: 1.0;"/><polygon fill="none" points="218.76,310.89,237.5,301,229.01,320.42,218.76,310.89" style="stroke: #A80036; stroke-width: 1.0;"/><!--MD5=[086d58c9cd5f58eeb066721f652f52ca]
reverse link com.github.teh_ard.person.Person to com.github.teh_ard.person.Elder--><path codeLine="50" d="M349,339.7 C349,353.87 349,367.24 349,378.89 " fill="none" id="com.github.teh_ard.person.Person-backto-com.github.teh_ard.person.Elder" style="stroke: #A80036; stroke-width: 1.0;"/><polygon fill="none" points="342,339.22,349,319.22,356,339.22,342,339.22" style="stroke: #A80036; stroke-width: 1.0;"/><!--MD5=[5e1333c8b4be0e549126876f888e631c]
reverse link com.github.teh_ard.person.Person to com.github.teh_ard.person.Child--><path codeLine="51" d="M474.19,315.74 C495.5,338.67 516.13,360.87 532.9,378.92 " fill="none" id="com.github.teh_ard.person.Person-backto-com.github.teh_ard.person.Child" style="stroke: #A80036; stroke-width: 1.0;"/><polygon fill="none" points="468.99,320.42,460.5,301,479.24,310.89,468.99,320.42" style="stroke: #A80036; stroke-width: 1.0;"/><text fill="#888888" font-family="sans-serif" font-size="10" lengthAdjust="spacingAndGlyphs" textLength="192" x="247" y="642.2822">UMLDoclet 2.0.12, PlantUML 1.2020.16</text><!--MD5=[a1fc6e7c0da1071deb93200360c2221c]
@startuml
    namespace com.github.teh_ard.person {

        class Doctor [[Doctor.html]] {
            +canInfect(Person): boolean
            #getDeathThreshold(): double
            +update(SimMap): void
        }

        class Adult [[Adult.html]] {
            +canInfect(Person): boolean
            +getMaxSpeed(): int
            #getDeathThreshold(): double
        }

        class Elder [[Elder.html]] {
            +canInfect(Person): boolean
            +getMaxSpeed(): int
            #getDeathThreshold(): double
        }

        abstract class Person [[Person.html]] {
            {abstract} +canInfect(Person): boolean
            {abstract} +getMaxSpeed(): int
            {abstract} #getDeathThreshold(): double
            +setInfected(boolean): void
            +isInfected(): boolean
            +isDead(): boolean
            +shouldDie(): boolean
            +move(): void
            +rollSector(): int
            +setSectors(List<Rectangle>): void
            +getNearby(SimMap): List<Person>
            +update(SimMap): void
            +setPosition(MapPoint): void
            +getPosition(): MapPoint
            +setDied(boolean): void
            +wasInfected(): boolean
            +setLethalityLevel(double): void
            +setIncubationValue(int): void
        }

        class Child [[Child.html]] {
            +canInfect(Person): boolean
            +getMaxSpeed(): int
            #getDeathThreshold(): double
        }

        Adult <|- - Doctor
        Person <|- - Adult
        Person <|- - Elder
        Person <|- - Child
    }

    center footer UMLDoclet 2.0.12, PlantUML 1.2020.16
@enduml

PlantUML version 1.2020.16(Sun Aug 23 22:20:43 CEST 2020)
(APACHE source distribution)
Java Runtime: OpenJDK Runtime Environment
JVM: OpenJDK 64-Bit Server VM
Default Encoding: UTF-8
Language: pl
Country: PL
--></g></svg>