<?xml version="1.0" encoding="UTF-8" standalone="no"?><svg xmlns="http://www.w3.org/2000/svg" xmlns:xlink="http://www.w3.org/1999/xlink" contentScriptType="application/ecmascript" contentStyleType="text/css" height="210px" preserveAspectRatio="none" style="width:312px;height:210px;" version="1.1" viewBox="0 0 312 210" width="312px" zoomAndPan="magnify"><defs><filter height="300%" id="fyffuyh1z5om4" width="300%" x="-1" y="-1"><feGaussianBlur result="blurOut" stdDeviation="2.0"/><feColorMatrix in="blurOut" result="blurOut2" type="matrix" values="0 0 0 0 0 0 0 0 0 0 0 0 0 0 0 0 0 0 .4 0"/><feOffset dx="4.0" dy="4.0" in="blurOut2" result="blurOut3"/><feBlend in="SourceGraphic" in2="blurOut3" mode="normal"/></filter></defs><g><!--MD5=[6c0a5c8eb2fbdf7cd9be428876a9e4e1]
cluster com.github.teh_ard.utils--><polygon fill="#FFFFFF" filter="url(#fyffuyh1z5om4)" points="16,6,212,6,219,28.2969,290,28.2969,290,182,16,182,16,6" style="stroke: #000000; stroke-width: 1.5;"/><line style="stroke: #000000; stroke-width: 1.5;" x1="16" x2="219" y1="28.2969" y2="28.2969"/><text fill="#000000" font-family="sans-serif" font-size="14" font-weight="bold" lengthAdjust="spacingAndGlyphs" textLength="190" x="20" y="20.9951">com.github.teh_ard.utils</text><!--MD5=[33c943446e944abdd48bdd1ba41c7c2a]
class com.github.teh_ard.utils.MapPoint--><a href="MapPoint.html" target="_top" title="MapPoint.html" xlink:actuate="onRequest" xlink:href="MapPoint.html" xlink:show="new" xlink:title="MapPoint.html" xlink:type="simple"><rect codeLine="3" fill="#FEFECE" filter="url(#fyffuyh1z5om4)" height="124.8281" id="com.github.teh_ard.utils.MapPoint" style="stroke: #A80036; stroke-width: 1.5;" width="241" x="32.5" y="41"/><ellipse cx="119.75" cy="57" fill="#ADD1B2" rx="11" ry="11" style="stroke: #A80036; stroke-width: 1.0;"/><path d="M123.2656,61.0313 L123.2656,63.0625 Q121.7813,63.6719 119.9531,63.6719 Q117.2344,63.6719 115.7813,61.9375 Q114.3281,60.1875 114.3281,57.0781 Q114.3281,54.0781 115.9063,52.2969 Q117.4844,50.5 120.2031,50.5 Q122.1094,50.5 123.8438,51.4219 L122.8906,53.3281 Q121.3906,52.5469 120.2031,52.5469 Q118.5938,52.5469 117.6094,53.7656 Q116.6406,54.9688 116.6406,57.0938 Q116.6406,59.3438 117.5469,60.4844 Q118.4688,61.625 120.2031,61.625 Q121.2344,61.625 123.2656,61.0313 Z "/><text fill="#000000" font-family="sans-serif" font-size="12" lengthAdjust="spacingAndGlyphs" textLength="58" x="140.25" y="61.1543">MapPoint</text><line style="stroke: #A80036; stroke-width: 1.5;" x1="33.5" x2="272.5" y1="73" y2="73"/><line style="stroke: #A80036; stroke-width: 1.5;" x1="33.5" x2="272.5" y1="81" y2="81"/><ellipse cx="43.5" cy="92" fill="#84BE84" rx="3" ry="3" style="stroke: #038048; stroke-width: 1.0;"/><text fill="#000000" font-family="sans-serif" font-size="11" lengthAdjust="spacingAndGlyphs" textLength="143" x="52.5" y="95.2104">MapPoint(double, double)</text><ellipse cx="43.5" cy="104.8047" fill="#84BE84" rx="3" ry="3" style="stroke: #038048; stroke-width: 1.0;"/><text fill="#000000" font-family="sans-serif" font-size="11" lengthAdjust="spacingAndGlyphs" textLength="79" x="52.5" y="108.0151">getX(): double</text><ellipse cx="43.5" cy="117.6094" fill="#84BE84" rx="3" ry="3" style="stroke: #038048; stroke-width: 1.0;"/><text fill="#000000" font-family="sans-serif" font-size="11" lengthAdjust="spacingAndGlyphs" textLength="79" x="52.5" y="120.8198">getY(): double</text><ellipse cx="43.5" cy="130.4141" fill="#84BE84" rx="3" ry="3" style="stroke: #038048; stroke-width: 1.0;"/><text fill="#000000" font-family="sans-serif" font-size="11" lengthAdjust="spacingAndGlyphs" textLength="111" x="52.5" y="133.6245">add(MapPoint): void</text><ellipse cx="43.5" cy="143.2188" fill="#84BE84" rx="3" ry="3" style="stroke: #038048; stroke-width: 1.0;"/><text fill="#000000" font-family="sans-serif" font-size="11" lengthAdjust="spacingAndGlyphs" textLength="215" x="52.5" y="146.4292">distanceToSquared(MapPoint): double</text><ellipse cx="43.5" cy="156.0234" fill="#84BE84" rx="3" ry="3" style="stroke: #038048; stroke-width: 1.0;"/><text fill="#000000" font-family="sans-serif" font-size="11" lengthAdjust="spacingAndGlyphs" textLength="107" x="52.5" y="159.2339">scale(double): void</text></a><text fill="#888888" font-family="sans-serif" font-size="10" lengthAdjust="spacingAndGlyphs" textLength="192" x="51" y="197.2822">UMLDoclet 2.0.12, PlantUML 1.2020.16</text><!--MD5=[106509ebb089f97c74477ded5b40880d]
@startuml
    namespace com.github.teh_ard.utils {

        class MapPoint [[MapPoint.html]] {
            +MapPoint(double, double)
            +getX(): double
            +getY(): double
            +add(MapPoint): void
            +distanceToSquared(MapPoint): double
            +scale(double): void
        }

    }

    center footer UMLDoclet 2.0.12, PlantUML 1.2020.16
@enduml

PlantUML version 1.2020.16(Sun Aug 23 22:20:43 CEST 2020)
(APACHE source distribution)
Java Runtime: OpenJDK Runtime Environment
JVM: OpenJDK 64-Bit Server VM
Default Encoding: UTF-8
Language: pl
Country: PL
--></g></svg>