<?xml version="1.0" encoding="UTF-8" standalone="no"?><svg xmlns="http://www.w3.org/2000/svg" xmlns:xlink="http://www.w3.org/1999/xlink" contentScriptType="application/ecmascript" contentStyleType="text/css" height="210px" preserveAspectRatio="none" style="width:302px;height:210px;" version="1.1" viewBox="0 0 302 210" width="302px" zoomAndPan="magnify"><defs><filter height="300%" id="fali5h76kcbx7" width="300%" x="-1" y="-1"><feGaussianBlur result="blurOut" stdDeviation="2.0"/><feColorMatrix in="blurOut" result="blurOut2" type="matrix" values="0 0 0 0 0 0 0 0 0 0 0 0 0 0 0 0 0 0 .4 0"/><feOffset dx="4.0" dy="4.0" in="blurOut2" result="blurOut3"/><feBlend in="SourceGraphic" in2="blurOut3" mode="normal"/></filter></defs><g><!--MD5=[6c0a5c8eb2fbdf7cd9be428876a9e4e1]
cluster com.github.teh_ard.utils--><polygon fill="#FFFFFF" filter="url(#fali5h76kcbx7)" points="16,6,212,6,219,28.2969,280,28.2969,280,182,16,182,16,6" style="stroke: #000000; stroke-width: 1.5;"/><line style="stroke: #000000; stroke-width: 1.5;" x1="16" x2="219" y1="28.2969" y2="28.2969"/><text fill="#000000" font-family="sans-serif" font-size="14" font-weight="bold" lengthAdjust="spacingAndGlyphs" textLength="190" x="20" y="20.9951">com.github.teh_ard.utils</text><!--MD5=[735f34e2df07e21c6eb1b869045a86e6]
class com.github.teh_ard.utils.Vector2--><a href="Vector2.html" target="_top" title="Vector2.html" xlink:actuate="onRequest" xlink:href="Vector2.html" xlink:show="new" xlink:title="Vector2.html" xlink:type="simple"><rect codeLine="3" fill="#FEFECE" filter="url(#fali5h76kcbx7)" height="124.8281" id="com.github.teh_ard.utils.Vector2" style="stroke: #A80036; stroke-width: 1.5;" width="233" x="31.5" y="41"/><ellipse cx="119.25" cy="57" fill="#ADD1B2" rx="11" ry="11" style="stroke: #A80036; stroke-width: 1.0;"/><path d="M122.7656,61.0313 L122.7656,63.0625 Q121.2813,63.6719 119.4531,63.6719 Q116.7344,63.6719 115.2813,61.9375 Q113.8281,60.1875 113.8281,57.0781 Q113.8281,54.0781 115.4063,52.2969 Q116.9844,50.5 119.7031,50.5 Q121.6094,50.5 123.3438,51.4219 L122.3906,53.3281 Q120.8906,52.5469 119.7031,52.5469 Q118.0938,52.5469 117.1094,53.7656 Q116.1406,54.9688 116.1406,57.0938 Q116.1406,59.3438 117.0469,60.4844 Q117.9688,61.625 119.7031,61.625 Q120.7344,61.625 122.7656,61.0313 Z "/><text fill="#000000" font-family="sans-serif" font-size="12" lengthAdjust="spacingAndGlyphs" textLength="49" x="139.75" y="61.1543">Vector2</text><line style="stroke: #A80036; stroke-width: 1.5;" x1="32.5" x2="263.5" y1="73" y2="73"/><line style="stroke: #A80036; stroke-width: 1.5;" x1="32.5" x2="263.5" y1="81" y2="81"/><ellipse cx="42.5" cy="92" fill="#84BE84" rx="3" ry="3" style="stroke: #038048; stroke-width: 1.0;"/><text fill="#000000" font-family="sans-serif" font-size="11" lengthAdjust="spacingAndGlyphs" textLength="135" x="51.5" y="95.2104">Vector2(double, double)</text><ellipse cx="42.5" cy="104.8047" fill="#84BE84" rx="3" ry="3" style="stroke: #038048; stroke-width: 1.0;"/><text fill="#000000" font-family="sans-serif" font-size="11" lengthAdjust="spacingAndGlyphs" textLength="79" x="51.5" y="108.0151">getX(): double</text><ellipse cx="42.5" cy="117.6094" fill="#84BE84" rx="3" ry="3" style="stroke: #038048; stroke-width: 1.0;"/><text fill="#000000" font-family="sans-serif" font-size="11" lengthAdjust="spacingAndGlyphs" textLength="79" x="51.5" y="120.8198">getY(): double</text><ellipse cx="42.5" cy="130.4141" fill="#84BE84" rx="3" ry="3" style="stroke: #038048; stroke-width: 1.0;"/><text fill="#000000" font-family="sans-serif" font-size="11" lengthAdjust="spacingAndGlyphs" textLength="103" x="51.5" y="133.6245">add(Vector2): void</text><ellipse cx="42.5" cy="143.2188" fill="#84BE84" rx="3" ry="3" style="stroke: #038048; stroke-width: 1.0;"/><text fill="#000000" font-family="sans-serif" font-size="11" lengthAdjust="spacingAndGlyphs" textLength="207" x="51.5" y="146.4292">distanceToSquared(Vector2): double</text><ellipse cx="42.5" cy="156.0234" fill="#84BE84" rx="3" ry="3" style="stroke: #038048; stroke-width: 1.0;"/><text fill="#000000" font-family="sans-serif" font-size="11" lengthAdjust="spacingAndGlyphs" textLength="107" x="51.5" y="159.2339">scale(double): void</text></a><text fill="#888888" font-family="sans-serif" font-size="10" lengthAdjust="spacingAndGlyphs" textLength="192" x="46" y="197.2822">UMLDoclet 2.0.12, PlantUML 1.2020.16</text><!--MD5=[f539fca7f8052bfbd81a97e67a660ff3]
@startuml
    namespace com.github.teh_ard.utils {

        class Vector2 [[Vector2.html]] {
            +Vector2(double, double)
            +getX(): double
            +getY(): double
            +add(Vector2): void
            +distanceToSquared(Vector2): double
            +scale(double): void
        }

    }

    center footer UMLDoclet 2.0.12, PlantUML 1.2020.16
@enduml

PlantUML version 1.2020.16(Sun Aug 23 22:20:43 CEST 2020)
(APACHE source distribution)
Java Runtime: OpenJDK Runtime Environment
JVM: OpenJDK 64-Bit Server VM
Default Encoding: UTF-8
Language: pl
Country: PL
--></g></svg>