<?xml version="1.0" encoding="UTF-8" standalone="no"?><svg xmlns="http://www.w3.org/2000/svg" xmlns:xlink="http://www.w3.org/1999/xlink" contentScriptType="application/ecmascript" contentStyleType="text/css" height="371px" preserveAspectRatio="none" style="width:453px;height:371px;" version="1.1" viewBox="0 0 453 371" width="453px" zoomAndPan="magnify"><defs><filter height="300%" id="fwh77s7sy6pf9" width="300%" x="-1" y="-1"><feGaussianBlur result="blurOut" stdDeviation="2.0"/><feColorMatrix in="blurOut" result="blurOut2" type="matrix" values="0 0 0 0 0 0 0 0 0 0 0 0 0 0 0 0 0 0 .4 0"/><feOffset dx="4.0" dy="4.0" in="blurOut2" result="blurOut3"/><feBlend in="SourceGraphic" in2="blurOut3" mode="normal"/></filter></defs><g><!--MD5=[8374fa63c9a7c5418323c02e4904f2d0]
cluster com.github.teh_ard.simulation--><polygon fill="#FFFFFF" filter="url(#fwh77s7sy6pf9)" points="16,6,259,6,266,28.2969,412,28.2969,412,195,16,195,16,6" style="stroke: #000000; stroke-width: 1.5;"/><line style="stroke: #000000; stroke-width: 1.5;" x1="16" x2="266" y1="28.2969" y2="28.2969"/><text fill="#000000" font-family="sans-serif" font-size="14" font-weight="bold" lengthAdjust="spacingAndGlyphs" textLength="237" x="20" y="20.9951">com.github.teh_ard.simulation</text><!--MD5=[a2ce21a01e8db48d54a5ad2d57cacf50]
cluster com.github.teh_ard.simulation.map--><polygon fill="#FFFFFF" filter="url(#fwh77s7sy6pf9)" points="140,244,421,244,428,266.2969,431,266.2969,431,343,140,343,140,244" style="stroke: #000000; stroke-width: 1.5;"/><line style="stroke: #000000; stroke-width: 1.5;" x1="140" x2="428" y1="266.2969" y2="266.2969"/><text fill="#000000" font-family="sans-serif" font-size="14" font-weight="bold" lengthAdjust="spacingAndGlyphs" textLength="275" x="144" y="258.9951">com.github.teh_ard.simulation.map</text><!--MD5=[b2e2455b1ec5b7abcc16854a0ac4ad61]
class com.github.teh_ard.simulation.Simulation--><a href="Simulation.html" target="_top" title="Simulation.html" xlink:actuate="onRequest" xlink:href="Simulation.html" xlink:show="new" xlink:title="Simulation.html" xlink:type="simple"><rect codeLine="3" fill="#FEFECE" filter="url(#fwh77s7sy6pf9)" height="137.6328" id="com.github.teh_ard.simulation.Simulation" style="stroke: #A80036; stroke-width: 1.5;" width="365" x="31.5" y="41"/><ellipse cx="177.25" cy="57" fill="#ADD1B2" rx="11" ry="11" style="stroke: #A80036; stroke-width: 1.0;"/><path d="M180.7656,61.0313 L180.7656,63.0625 Q179.2813,63.6719 177.4531,63.6719 Q174.7344,63.6719 173.2813,61.9375 Q171.8281,60.1875 171.8281,57.0781 Q171.8281,54.0781 173.4063,52.2969 Q174.9844,50.5 177.7031,50.5 Q179.6094,50.5 181.3438,51.4219 L180.3906,53.3281 Q178.8906,52.5469 177.7031,52.5469 Q176.0938,52.5469 175.1094,53.7656 Q174.1406,54.9688 174.1406,57.0938 Q174.1406,59.3438 175.0469,60.4844 Q175.9688,61.625 177.7031,61.625 Q178.7344,61.625 180.7656,61.0313 Z "/><text fill="#000000" font-family="sans-serif" font-size="12" lengthAdjust="spacingAndGlyphs" textLength="65" x="197.75" y="61.1543">Simulation</text><line style="stroke: #A80036; stroke-width: 1.5;" x1="32.5" x2="395.5" y1="73" y2="73"/><line style="stroke: #A80036; stroke-width: 1.5;" x1="32.5" x2="395.5" y1="81" y2="81"/><ellipse cx="42.5" cy="92" fill="#84BE84" rx="3" ry="3" style="stroke: #038048; stroke-width: 1.0;"/><text fill="#000000" font-family="sans-serif" font-size="11" lengthAdjust="spacingAndGlyphs" textLength="82" x="51.5" y="95.2104">Simulation(int)</text><ellipse cx="42.5" cy="104.8047" fill="#84BE84" rx="3" ry="3" style="stroke: #038048; stroke-width: 1.0;"/><text fill="#000000" font-family="sans-serif" font-size="11" lengthAdjust="spacingAndGlyphs" textLength="66" x="51.5" y="108.0151">start(): void</text><ellipse cx="42.5" cy="117.6094" fill="#84BE84" rx="3" ry="3" style="stroke: #038048; stroke-width: 1.0;"/><text fill="#000000" font-family="sans-serif" font-size="11" lengthAdjust="spacingAndGlyphs" textLength="339" x="51.5" y="120.8198">addPerson(int, double, int, Class&lt;? extends Person&gt;): void</text><ellipse cx="42.5" cy="130.4141" fill="#84BE84" rx="3" ry="3" style="stroke: #038048; stroke-width: 1.0;"/><text fill="#000000" font-family="sans-serif" font-size="11" lengthAdjust="spacingAndGlyphs" textLength="173" x="51.5" y="133.6245">setMaxIterationCount(int): void</text><ellipse cx="42.5" cy="143.2188" fill="#84BE84" rx="3" ry="3" style="stroke: #038048; stroke-width: 1.0;"/><text fill="#000000" font-family="sans-serif" font-size="11" lengthAdjust="spacingAndGlyphs" textLength="78" x="51.5" y="146.4292">update(): void</text><ellipse cx="42.5" cy="156.0234" fill="#84BE84" rx="3" ry="3" style="stroke: #038048; stroke-width: 1.0;"/><text fill="#000000" font-family="sans-serif" font-size="11" lengthAdjust="spacingAndGlyphs" textLength="100" x="51.5" y="159.2339">isDone(): boolean</text><ellipse cx="42.5" cy="168.8281" fill="#84BE84" rx="3" ry="3" style="stroke: #038048; stroke-width: 1.0;"/><text fill="#000000" font-family="sans-serif" font-size="11" lengthAdjust="spacingAndGlyphs" textLength="150" x="51.5" y="172.0386">getPeople(): List&lt;Person&gt;</text></a><!--MD5=[59fd4a8b3123d427eb4d050d07389704]
class com.github.teh_ard.simulation.map.SimMap--><rect fill="#FEFECE" filter="url(#fwh77s7sy6pf9)" height="48" id="com.github.teh_ard.simulation.map.SimMap" style="stroke: #A80036; stroke-width: 1.5;" width="80" x="174" y="279"/><ellipse cx="189" cy="295" fill="#ADD1B2" rx="11" ry="11" style="stroke: #A80036; stroke-width: 1.0;"/><path d="M192.5156,299.0313 L192.5156,301.0625 Q191.0313,301.6719 189.2031,301.6719 Q186.4844,301.6719 185.0313,299.9375 Q183.5781,298.1875 183.5781,295.0781 Q183.5781,292.0781 185.1563,290.2969 Q186.7344,288.5 189.4531,288.5 Q191.3594,288.5 193.0938,289.4219 L192.1406,291.3281 Q190.6406,290.5469 189.4531,290.5469 Q187.8438,290.5469 186.8594,291.7656 Q185.8906,292.9688 185.8906,295.0938 Q185.8906,297.3438 186.7969,298.4844 Q187.7188,299.625 189.4531,299.625 Q190.4844,299.625 192.5156,299.0313 Z "/><text fill="#000000" font-family="sans-serif" font-size="12" lengthAdjust="spacingAndGlyphs" textLength="48" x="203" y="299.1543">SimMap</text><line style="stroke: #A80036; stroke-width: 1.5;" x1="175" x2="253" y1="311" y2="311"/><line style="stroke: #A80036; stroke-width: 1.5;" x1="175" x2="253" y1="319" y2="319"/><!--MD5=[b354cb28188642874ba72ff5f60620da]
link com.github.teh_ard.simulation.Simulation to com.github.teh_ard.simulation.map.SimMap--><path codeLine="13" d="M214,179.15 C214,211.75 214,249.01 214,273.86 " fill="none" id="com.github.teh_ard.simulation.Simulation-to-com.github.teh_ard.simulation.map.SimMap" style="stroke: #A80036; stroke-width: 1.0;"/><polygon fill="#A80036" points="214,278.97,218,269.97,214,273.97,210,269.97,214,278.97" style="stroke: #A80036; stroke-width: 1.0;"/><text fill="#000000" font-family="sans-serif" font-size="13" lengthAdjust="spacingAndGlyphs" textLength="29" x="215" y="224.0669">map</text><text fill="#888888" font-family="sans-serif" font-size="10" lengthAdjust="spacingAndGlyphs" textLength="192" x="121.5" y="358.2822">UMLDoclet 2.0.12, PlantUML 1.2020.16</text><!--MD5=[3cfa79f1cabc8b590eb422016f045cc5]
@startuml
    namespace com.github.teh_ard.simulation {

        class Simulation [[Simulation.html]] {
            +Simulation(int)
            +start(): void
            +addPerson(int, double, int, Class<? extends Person>): void
            +setMaxIterationCount(int): void
            +update(): void
            +isDone(): boolean
            +getPeople(): List<Person>
        }

        Simulation - -> com.github.teh_ard.simulation.map.SimMap: map
    }

    center footer UMLDoclet 2.0.12, PlantUML 1.2020.16
@enduml

PlantUML version 1.2020.16(Sun Aug 23 22:20:43 CEST 2020)
(APACHE source distribution)
Java Runtime: OpenJDK Runtime Environment
JVM: OpenJDK 64-Bit Server VM
Default Encoding: UTF-8
Language: pl
Country: PL
--></g></svg>